<?xml version="1.0" encoding="utf-8"?>
<!-- Generator: Adobe Illustrator 19.0.0, SVG Export Plug-In . SVG Version: 6.00 Build 0)  -->
<svg version="1.1" id="Layer_1" xmlns="http://www.w3.org/2000/svg" xmlns:xlink="http://www.w3.org/1999/xlink" x="0px" y="0px"
	 viewBox="0 0 306.7 131.1" style="enable-background:new 0 0 306.7 131.1;" xml:space="preserve">
<style type="text/css">
	.st0{fill:#C74064;}
</style>
<g id="XMLID_181_">
	<path id="XMLID_218_" class="st0" d="M186.7,75.6h-6.6v8.2h6.6c2.9,0,4.5-1.9,4.5-4.1C191.2,77.5,189.6,75.6,186.7,75.6z"/>
	<path id="XMLID_324_" class="st0" d="M159.5,56.9v55.6h142.6l4.6-55.6H159.5z M188.3,90.2h-8.2v11h-8.8V69.2h17
		c6.9,0,11.5,4.4,11.5,10.5C199.8,85.5,195.2,90.2,188.3,90.2z M224.1,101.2l-1.9-5.5h-12.6l-1.9,5.5h-9.3L211,69.2h9.8l12.7,32.1
		H224.1z M250.7,101.8c-9.7,0-16.7-7.1-16.7-16.6c0-9.6,7.1-16.7,16.7-16.7c9.7,0,16.7,7.1,16.7,16.7
		C267.4,94.8,260.4,101.8,250.7,101.8z"/>
	<path id="XMLID_327_" class="st0" d="M250.7,75.8c-4.7,0-7.7,3.8-7.7,9.4c0,5.6,3,9.3,7.7,9.3c4.7,0,7.7-3.7,7.7-9.3
		C258.5,79.6,255.4,75.8,250.7,75.8z"/>
	<polygon id="XMLID_352_" class="st0" points="211.8,89.2 219.8,89.2 215.8,77.8 	"/>
	<path id="XMLID_355_" class="st0" d="M189.5,34.5c0-9.2-6.7-15.9-17.9-15.9h-12.1v32.1h12.1C182.8,50.7,189.5,43.9,189.5,34.5z
		 M168.3,25.7h3.8c5.2,0,8.4,3.5,8.4,8.8c0,5.4-3.2,9.1-8.4,9.1h-3.8V25.7z"/>
	<path id="XMLID_372_" class="st0" d="M201.3,45.2H214l1.9,5.5h9.3l-12.7-32.1h-9.8l-12.7,32.1h9.3L201.3,45.2z M207.7,27.3l4,11.4
		h-8L207.7,27.3z"/>
	<polygon id="XMLID_373_" class="st0" points="233.6,50.7 242.4,50.7 242.4,25.7 252,25.7 252,18.6 224,18.6 224,25.7 233.6,25.7 	
		"/>
	<path id="XMLID_1007_" class="st0" d="M260.1,50.7l1.9-5.5h12.6l1.9,5.5h9.3l-12.7-32.1h-9.8l-12.7,32.1H260.1z M268.4,27.3l4,11.4
		h-8L268.4,27.3z"/>
	<path id="XMLID_1019_" class="st0" d="M108.6,37c-3.2-20.9-21.3-37-43-37v11.9c15.3,0,28.1,10.9,31,25.4c-11.1,2.7-19.7,12.1-21,24
		c-1.7,16-15,28-31.1,28c-17.2,0-31.3-14-31.3-31.3c0-2.6,0.3-5.2,0.9-7.7c0.4-1.4,0.9-2.8,1.4-4.2c1.2-3-0.2-6.3-3.1-7.6
		c-0.1,0-0.1-0.1-0.2-0.1c-3.1-1.2-6.5,0.2-7.8,3.3c-0.7,1.8-1.3,3.6-1.8,5.5C0.9,53.2,0,59.3,0,65.6c0,36.2,29.4,65.6,65.6,65.6
		c36.2,0,65.6-29.4,65.6-65.6c0-0.6,0-1.2,0-1.7C131.1,50.3,121.6,39.4,108.6,37z M103.3,72.2c-4.2,0-7.6-3.4-7.6-7.6
		c0-4.2,3.4-7.6,7.6-7.6c4.2,0,7.6,3.4,7.6,7.6C111,68.8,107.6,72.2,103.3,72.2z"/>
</g>
</svg>
